<?xml version="1.0" encoding="utf-8"?>
<!-- Generator: Adobe Illustrator 22.0.1, SVG Export Plug-In . SVG Version: 6.00 Build 0)  -->
<svg version="1.1" id="NM" xmlns="http://www.w3.org/2000/svg" xmlns:xlink="http://www.w3.org/1999/xlink" x="0px" y="0px"
	 viewBox="0 0 512 512" style="enable-background:new 0 0 512 512;" xml:space="preserve">
<style type="text/css">
	.st0{fill:#588393;}
	.st1{fill:#000000;}
</style>
<path class="st0" d="M498.9,0H13.1C6,0,0.3,10,0.3,22.1v467.9C0.3,502,6.1,512,13.1,512H499c7,0,12.8-10,12.8-22.1V22.1
	C511.7,10,506,0,498.9,0z"/>
<g>
	<polygon class="st1" points="94.7,293.3 85.3,302.8 40.5,258 85.3,213.2 94.7,222.7 59.4,258 	"/>

		<rect x="72.4" y="251.3" transform="matrix(0.1843 -0.9829 0.9829 0.1843 -150.1772 334.9343)" class="st1" width="108.6" height="13.3"/>
	<polygon class="st1" points="161.5,302.8 152,293.3 187.4,258 152,222.7 161.5,213.2 206.2,258 	"/>
</g>
<g>
	<path class="st1" d="M328.1,323.3h-19.5l-47.3-82.3l-11.4-21.8c0.1,1.2,0.2,2.3,0.2,3.5c0.7,10.2,1.5,20.8,1.5,31.2v69.3h-18.8
		V190.7h19.5l47.3,82.2l11.4,21.8c-0.1-0.9-0.1-1.9-0.2-2.8c-0.7-10.8-1.5-22-1.5-32.6v-68.6h18.8L328.1,323.3L328.1,323.3z"/>
	<path class="st1" d="M471.5,323.3H453v-72.9c0-8.5,0.7-19.4,1.4-29.1l-7.3,20.9l-24.8,68h-13.2l-24.9-68l-7.2-20.8
		c0.7,9.7,1.4,20.6,1.4,29.1v72.9h-18.1V190.7h22.6l25.2,70.2c1.7,4.9,3.5,10,5.1,15c1,2.9,2,5.8,3,8.7c1.1-3.2,2.1-6.4,3.1-9.6
		c1.5-4.7,3.1-9.5,4.7-14.2l24.9-70.2h22.6L471.5,323.3L471.5,323.3z"/>
</g>
</svg>
